<?xml version="1.0" encoding="UTF-8"?>
<svg width="520px" height="412px" viewBox="0 0 520 412" version="1.1" xmlns="http://www.w3.org/2000/svg" xmlns:xlink="http://www.w3.org/1999/xlink">
    <title>Group 98</title>
    <defs>
        <polygon id="path-1" points="0 0.470707485 92.9701172 0.470707485 92.9701172 98.6287663 0 98.6287663"></polygon>
    </defs>
    <g id="Page-1" stroke="none" stroke-width="1" fill="none" fill-rule="evenodd">
        <g id="Homepage-V2" transform="translate(-947.000000, -4524.000000)">
            <g id="Group-98" transform="translate(947.000000, 4524.000000)">
                <path d="M480.562733,6.93197113 C480.416228,5.73225439 479.697409,4.85389035 478.420841,4.78961981 C369.036986,-0.707653671 103.525481,-0.873900133 74.1430065,1.30272881 C73.0180848,1.38585204 71.9608469,2.21708435 72,3.44508013 C74.8095633,88.6592462 77.9504338,173.861415 81.4305799,259.05073 C82.4038557,282.903669 83.4054044,306.755752 84.431799,330.606121 C84.4909152,331.983224 85.5969883,332.673061 86.6705046,332.671347 C90.5756021,344.801341 89.2210696,358.027361 91.2678616,370.524981 C93.3257914,383.0903 99.7925918,393.499557 110.565452,400.399642 C121.945753,407.689635 135.561332,409.898828 148.862481,409.994805 C165.143431,410.113063 181.531475,408.184947 197.755879,406.998941 C264.052577,402.150372 330.345849,397.056717 396.44892,389.985244 C433.193506,386.055315 469.871265,381.498962 506.425651,376.077099 C507.309824,375.945987 508.035497,374.862814 508,374.011015 C503.777416,276.516035 483.919506,34.5288839 480.562733,6.93197113" id="Fill-1" fill="#F5E4D5"></path>
                <path d="M209.995702,310 L307.853791,310 C316.975024,310 324.026517,302.059543 322.876947,293.082155 L313.028139,216.131903 C312.066883,208.62626 305.631689,203 298.004983,203 L200.146037,203 C191.025661,203 183.974167,210.940457 185.122881,219.917845 L194.972545,296.868097 C195.932946,304.37374 202.369851,310 209.995702,310" id="Fill-3" fill="#9E4D4D"></path>
                <path d="M262.330613,38.1997756 C271.720603,31.4890372 286.322025,28.8360925 297.764315,32.982007 C297.939122,33.4692134 298.245875,33.9284584 298.733317,34.3055138 C302.871535,37.5032823 301.168008,38.7039283 304.8919,42.4363529 C305.406236,42.9515207 306.023943,43.1955476 306.643331,43.2345241 C309.604964,53.7751284 310.005843,68.8132831 306.515588,81.9009177 C305.211259,86.7950117 301.793279,99.3996765 296.593613,103.959081 C289.345008,110.313947 279.470097,108.477814 272.886263,103.253267 C261.159071,93.9455069 253.786084,82.20002 252.576722,67.1008586 C251.455605,53.1201535 250.793356,46.4433077 262.330613,38.1997756" id="Fill-5" fill="#F79884"></path>
                <path d="M259.042881,124.653795 C261.130916,127.013035 266.45512,125.748462 269.104974,125.703661 C271.53108,125.663086 271.237105,125.914987 273.662395,125.873567 C275.556897,125.842291 278.712223,126.403572 280.485052,125.75607 C283.106325,124.800032 283.412548,128.628409 284.135235,126.150826 C286.917377,116.603129 287.303627,97.6751058 287.992834,87.8095751 C288.101441,86.2601348 286.95739,85.3827104 285.797008,85.3024066 C285.596942,85.1984343 285.380544,85.1122134 285.129032,85.0665671 C276.90673,83.5855963 271.473101,81.6025156 264.890523,75.9415218 C263.595402,74.8265672 258.278547,68.609364 258.160141,70.2847544 L258.723592,114.525375 C258.540674,117.110311 257.012007,122.358797 259.042881,124.653795" id="Fill-7" fill="#F79884"></path>
                <path d="M314.502144,52.7258405 C314.077937,51.6849312 313.46218,50.7761471 313.245266,49.6640934 C313.023104,48.5308658 313.278503,47.4238939 313.235645,46.2821968 C313.139433,43.7303174 312.00938,41.2614397 310.211967,39.4049114 C309.256845,38.4190542 308.101427,37.6076701 306.827932,37.0546076 C305.085621,36.2965817 303.038931,36.2415295 301.475051,35.126935 C300.024,34.0919543 299.349642,32.3751739 298.070898,31.1648733 C296.918104,30.0756874 295.432068,29.3193554 293.969647,28.7027712 C291.020314,27.4585924 287.76048,26.8852029 284.547002,27.019022 C282.937639,27.0867786 281.334398,27.3315489 279.783637,27.7490984 C277.757064,28.2953852 275.765478,29.2524459 273.618203,29.2295781 C271.320487,29.2058633 269.168839,28.2521905 266.847508,28.280987 C264.956507,28.3038548 263.07775,28.7112408 261.314448,29.3591624 C257.908547,30.6101169 254.999448,32.7563042 252.252161,35.030382 C252.197932,35.0380046 252.140205,35.0549437 252.082478,35.0888219 C250.594692,35.9501765 250.448625,37.4281153 249.969314,38.9204524 C249.252098,41.1538762 246.84855,42.1956325 245.465722,44.0504669 C243.034185,47.3112487 242.312595,51.7628512 243.698047,55.567379 C244.061028,56.5650936 244.741509,57.4027334 245.133354,58.3724984 C245.822581,60.0697988 245.407995,61.6265046 245.417616,63.3788572 C245.430736,65.9595331 245.994013,68.521576 246.903653,70.9404833 C248.914482,76.2830838 254.069691,87.4205595 257.640028,91.8619985 C257.900675,92.1863828 258.351996,91.8780907 258.386982,91.562176 C258.823434,87.605196 256.761001,77.0597428 256.844093,73.098528 C256.857213,72.4683925 256.897447,71.8365631 256.954299,71.2072746 C257.000656,71.158998 257.05401,71.121732 257.092495,71.0649859 C259.547648,67.4501763 263.048887,70.5364851 265.536402,68.1006387 C267.070545,66.5981382 266.442543,63.6693632 266.385691,61.8534889 C266.303473,59.174566 266.628845,57.2401177 268.34579,55.0270209 C268.959797,54.2351167 269.530946,53.5219795 269.909671,52.5835519 C270.652252,50.738034 270.584904,48.7510745 270.318134,46.8064627 C270.459828,46.4947828 270.585778,46.1729394 270.682865,45.831616 C270.751962,45.8417795 270.823684,45.8434734 270.893656,45.8451673 C270.848174,45.9493429 270.844676,46.0721516 270.921645,46.1991951 C271.671224,47.4518435 272.857254,47.8583825 274.191101,48.3546989 C276.484443,49.2101248 277.698463,50.5296828 278.792654,52.6208179 C280.412513,55.7172903 281.782221,58.7688739 285.490753,59.9012545 C289.996095,61.2775586 294.321257,58.1776984 298.864209,59.194893 C301.216153,59.7216998 303.977435,60.7787013 306.147451,59.8233345 C309.513993,61.7323741 314.242371,60.1384023 314.930724,55.8875285 C315.111777,54.7678522 314.927225,53.7675968 314.502144,52.7258405" id="Fill-21" fill="#1F2144"></path>
                <path d="M262.006417,71.8194286 C261.909787,71.2377227 261.519401,70.6864107 260.746358,70.4179311 C255.141802,68.4727202 253.170545,73.7283356 254.309816,77.7209148 C254.889597,79.749709 256.405726,81.5919183 258.556716,82.5518596 C260.59948,83.462833 262.662537,83.0027028 263.370837,81.0085239 C264.125519,78.8843265 264.223116,75.9133208 263.544771,73.7680166 C263.295465,72.9794632 262.734043,72.2736488 262.006417,71.8194286 Z" id="Fill-23" fill="#F79884"></path>
                <path d="M329.615851,229.425891 C329.475079,217.085014 329.334306,204.744136 329.194386,192.403258 C329.070677,181.561315 329.673866,170.308151 327.22101,159.705728 C325.210948,151.013457 321.247133,142.904106 315.921662,136.081639 C308.854024,127.026225 299.423113,120.900857 289.170601,118 C284.87405,121.530135 278.035061,123.602544 273.633571,124.117641 C266.410656,124.964118 257.767218,123.31924 253.78122,118.032623 C243.446805,120.960952 232.996358,125.535876 224.599485,131.691292 C214.206201,139.311301 209.158863,151.655612 205.119969,164.538201 C200.579413,179.027893 200.306399,194.567526 200.188662,209.716544 C200.070925,224.845816 199.251031,240.571743 202.280628,255.448617 C204.683147,267.246925 210.112704,278.07685 217.709306,286.794017 C216.260628,287.884307 216.578006,290.884749 218.712631,290.701031 C219.540203,290.629776 220.368629,290.560238 221.197054,290.491558 C221.88556,291.167195 222.584304,291.830812 223.300965,292.473825 C225.034601,294.031137 227.444798,291.80334 226.562623,290.052867 C245.455161,288.551358 264.45861,287.375218 283.203549,284.575664 C293.236796,283.07673 303.572919,281.074718 312.989326,276.883541 C320.325712,273.617823 326.14346,268.296866 328.391556,259.79003 C330.935701,250.171443 329.728469,239.284857 329.615851,229.425891" id="Fill-27" fill="#FFFFFF"></path>
                <path d="M75.971951,118.250336 C62.1047024,141.021229 63.9270994,168.910188 73.9341024,192.769903 C79.1781774,205.272058 86.3281048,218.09082 96.8375444,226.838296 C106.949293,235.253719 122.612539,245.571364 140.345143,238.817918 C164.138493,229.756409 175.740519,189.705927 173.788681,159.68394 C172.97797,147.216106 169.891817,134.95248 164.529372,123.672999 C158.949772,111.939627 151.047041,101.126048 138.925546,95.7960516 C115.523926,85.505863 88.8028177,97.1800318 75.971951,118.250336" id="Fill-29" fill="#78ADD9"></path>
                <g id="Group-33" transform="translate(0.000000, 204.000000)">
                    <mask id="mask-2" fill="white">
                        <use xlink:href="#path-1"></use>
                    </mask>
                    <g id="Clip-32"></g>
                    <path d="M0.00307155963,39.3665322 C0.266713761,58.9194626 12.2065486,75.4550452 27.6402826,86.2710104 C35.7278697,91.9381148 45.1157505,97.0499583 54.9993468,98.31888 C64.5092367,99.5387322 83.9086954,97.1644539 86.9657505,91.0669148 C99.1649615,66.7361583 91.1174752,43.1939583 77.6239431,26.5886452 C71.8758606,19.5166017 65.6260899,12.8250626 57.9395119,7.96114957 C49.9432183,2.90181913 40.8684661,-0.672511304 31.3125028,0.808184348 C12.8660807,3.66713217 -0.240093578,21.2736365 0.00307155963,39.3665322" id="Fill-31" fill="#78ADD9" mask="url(#mask-2)"></path>
                </g>
                <path d="M12.7677858,212.114148 C43.044323,238.721844 72.9242244,266.138691 98.281624,297.636436 C105.224884,306.261094 111.796244,315.18147 117.929173,324.405277 C118.23454,324.86471 117.471976,325.251285 117.170021,324.796995 C94.937088,291.360373 66.865505,262.407511 37.4351243,235.351524 C29.0989474,227.687733 20.6390884,220.1628 12.1340214,212.688439 C11.720326,212.325864 12.3592082,211.755001 12.7677858,212.114148" id="Fill-34" fill="#1F2144"></path>
                <polygon id="Fill-36" fill="#1F2144" points="74.822384 412 520 412 501.177616 278 56 278"></polygon>
                <path d="M200.815177,309.942866 C202.918248,315.371367 209.824671,323.42321 216.19435,318.433749 C218.755475,316.427909 219.492668,312.511747 219.827304,309.47115 C220.343339,304.784156 219.72625,300.164191 217.660453,295.975724 C214.904676,290.388029 210.076476,288.799445 204.938489,290.873151 C197.266711,293.969047 198.381612,303.659747 200.815177,309.942866" id="Fill-38" fill="#797A8A"></path>
                <polygon id="Fill-40" fill="#FFFFFF" points="391.835657 147.987214 455 149 443.165194 64.013646 380 63"></polygon>
                <path d="M212.266542,320 C211.924887,315.29987 211.363656,310.622841 210.566742,305.975133 C206.999279,306.317203 203.423339,307.490903 200.291637,309.089302 C200.192446,308.814758 200.094951,308.534882 200,308.249676 C203.303802,306.575754 207.064559,305.377177 210.809207,305.071535 C210.893985,305.040438 210.981306,305.035107 211.064389,305.057319 C214.15455,304.83875 217.220974,305.231464 220,306.473578 C219.990674,306.788993 219.978805,307.104408 219.959307,307.420712 C217.318469,306.167047 214.381756,305.74679 211.412827,305.920935 C212.200415,310.54732 212.759103,315.203025 213.10415,319.880942 C212.824382,319.942248 212.544614,319.978676 212.266542,320" id="Fill-42" fill="#1F2144"></path>
                <path d="M146,324.627831 C145.801978,309.39625 144.32581,294.227999 142.575248,279.103393 C140.746536,263.310406 138.810151,247.529399 136.920656,231.743258 L131.191387,183.879055 C129.419117,169.067674 127.875218,154.202377 125.474274,139.474008 C122.951764,123.993388 119.27871,108.632581 112.833065,94.2465339 C112.607298,93.7416101 111.813641,94.0899219 112.040276,94.5948457 C123.802731,120.849168 126.25317,149.911381 129.624912,178.087837 C133.402166,209.648994 137.198523,241.209295 140.956673,272.773875 C143.004205,289.972091 144.910199,307.213097 145.135097,324.544818 C145.142912,325.089109 146.006905,325.179824 146,324.627831" id="Fill-44" fill="#1F2144"></path>
                <path d="M309.696488,289.514312 C290.399023,292.720528 269.419846,292.097193 244.929924,292.518202 C243.598857,292.541448 242.647725,294.294363 243.125014,295.695145 C246.987264,307.013326 270.585499,348.09834 278.551228,357.022191 C278.986302,357.510356 279.477376,357.754868 279.967588,357.823745 C280.623214,358.670069 285.898377,356.209445 286.97357,355.915858 C292.503747,354.405734 291.070157,352.812957 292.752729,347.630839 C294.866069,341.12112 296.478857,334.402187 298.310475,327.808094 C302.172725,313.901006 305.718793,299.863913 306.034114,285.357597 C306.073744,283.536667 311.292908,289.249137 309.696488,289.514312" id="Fill-46" fill="#797A8A"></path>
                <path d="M277.506948,282.24884 C272.252557,277.811326 264.37139,277.583281 260.414016,283.669015 C260.136144,283.612004 259.828889,283.661357 259.659312,283.883445 C259.516598,284.069795 259.374723,284.256146 259.232009,284.443347 C258.845003,284.848381 258.942384,285.645688 259.522474,285.848205 C259.802865,286.01073 260.148736,286.000519 260.413177,285.654197 C260.697765,285.281497 265.491274,294.115682 265.848899,294.91469 C266.695108,296.802867 267.495146,298.539582 269.132998,299.859349 C271.250201,301.565431 274.277416,302.325297 276.670812,303.451056 C279.869283,304.957173 282.861239,306.804507 285.736505,308.869674 C286.264546,309.248331 287.007498,308.740335 287,308.134485 C286.869821,299.239033 284.602349,288.241825 277.506948,282.24884" id="Fill-48" fill="#F79884"></path>
                <path d="M271.838954,268.564947 C269.878234,265.747725 268.004293,262.870139 266.223148,259.93564 C258.806433,247.718189 252.998163,234.554765 248.940106,220.842039 C244.466192,205.724582 242.109374,189.998322 242.099923,174.222909 C242.090472,158.56736 243.511608,143.48957 236.222916,129.244788 C241.751083,126.349956 247.495772,123.922505 253.200937,121.946051 C255.798333,121.045782 255.206337,117.229984 252.582304,118.138877 C228.627485,126.4405 207.599141,134.201444 198.595463,159.171851 C193.863785,172.293021 192.359305,192.688783 196.11406,205.889286 C199.793204,218.825056 204.702739,231.638375 210.863286,243.592816 C216.685304,254.890164 223.989461,265.600267 233.25434,274.342539 C237.920718,278.747306 243.089735,282.82094 248.782871,285.807179 C251.162028,287.054104 254.012892,288.619227 256.71769,288.951223 C259.397571,289.27977 261.193323,287.895735 263.269178,286.387525 C266.386398,284.123916 269.496744,281.850822 272.601934,279.570829 C274.064312,278.497231 276.043936,277.330503 276,275.229874 C275.950282,272.95333 273.037555,270.286152 271.838954,268.564947" id="Fill-50" fill="#FFFFFF"></path>
                <path d="M371.191129,257.550688 C370.355458,254.027804 369.500833,250.510075 368.624671,246.996642 C362.551838,222.618284 356.313594,197.656501 346.699927,174.388281 C337.564402,152.277457 323.187409,131.201158 300.637204,121.166093 C298.629009,120.272484 296.874099,123.233425 298.897802,124.134768 C301.056763,125.094539 303.115789,126.161715 305.111062,127.296771 C304.812115,127.489241 304.562275,127.78396 304.421848,128.204129 C296.878406,150.772928 298.983092,173.898514 308.128955,195.626117 C318.134612,219.397852 329.659985,242.68068 341.831496,265.41703 C343.863814,269.214871 345.623893,272.032319 350.192517,272.671594 C355.587336,273.426007 361.522325,272.794465 366.8353,271.652535 C370.434717,270.879219 373.043391,269.709794 373,265.716905 C372.970162,263.072164 371.798499,260.11466 371.191129,257.550688" id="Fill-52" fill="#FFFFFF"></path>
                <path d="M268.008121,258.000979 C270.040093,275.554504 275.978052,344.713146 276.433035,349.490572 C276.679412,352.076486 276.188374,355.485504 278.030627,357.523541 C278.422084,357.956527 397.816525,358.257474 407.92831,357.683874 C410.503687,357.826203 411.96135,357.272323 411.976802,355.699854 C412.283272,323.831199 409.511308,289.182 406.140999,257.489969 C406.089492,257.008111 405.783022,256.229593 405.487712,255.965514 C405.249919,255.457934 404.024899,255.477654 403.300359,255.464793 C356.527235,254.631402 316.443221,254.91863 269.683832,256.327336 C268.862287,256.352201 267.901672,257.081847 268.008121,258.000979" id="Fill-54" fill="#797A8A"></path>
                <path d="M343.499836,300 C350.827255,300 350.839519,311 343.499836,311 C336.173293,311 336.160153,300 343.499836,300" id="Fill-56" fill="#1F2144"></path>
                <path d="M272.886564,254.257188 C266.904513,247.537827 265.050919,238.576113 261.604233,230.521428 C259.711951,226.09742 257.072558,222.247038 254.310222,218.32741 C251.363903,214.148754 248.988449,209.851269 247.47875,204.949383 C244.604649,195.613232 244.014869,185.743635 241.560319,176.298914 C239.254504,167.420124 235.686595,158.664437 229.737213,151.556959 C223.854891,144.530695 215.755307,139.246678 206.539784,138.004537 C205.999009,137.931872 205.765161,138.755122 206.311094,138.829496 C225.948351,141.476207 236.680451,160.179285 241.011807,177.625689 C243.300428,186.842157 243.894506,196.457854 246.75915,205.530702 C248.164821,209.983775 250.265159,214.010263 252.926905,217.845258 C255.541366,221.610152 258.258136,225.248524 260.185666,229.428035 C264.127562,237.975132 265.846176,247.635283 272.27873,254.862444 C272.646698,255.274496 273.252812,254.668386 272.886564,254.257188" id="Fill-58" fill="#F5E4D5"></path>
                <path d="M328.086554,234.106125 C326.871865,230.804635 326.300147,227.458278 326.018529,223.959545 C325.46208,217.057737 324.523071,210.336242 322.857116,203.604588 C321.161472,196.748493 319.004382,190.019379 316.937206,183.269947 C315.83703,179.677249 314.661361,176.069312 314.132904,172.338628 C313.580696,168.447103 313.962406,164.572508 314.777571,160.742779 C316.522413,152.552543 319.213899,144.52061 321.667026,136.521692 C321.826497,135.998533 321.007939,135.775894 320.849317,136.295667 C318.631153,143.530163 316.338344,150.767199 314.518008,158.113438 C313.688423,161.457255 313.02255,164.8798 313.000495,168.336206 C312.977593,171.92044 313.752041,175.425945 314.728373,178.856955 C318.803347,193.176958 323.903852,207.08893 325.02693,222.057379 C325.294127,225.622988 325.571504,229.179286 326.665741,232.60691 C327.852438,236.319816 329.628665,239.795693 330.176632,243.693145 C330.252126,244.230695 331.069836,244.00213 330.99519,243.468813 C330.532896,240.1851 329.222355,237.194288 328.086554,234.106125" id="Fill-60" fill="#F5E4D5"></path>
                <path d="M297,120.296051 C296.736362,120.194184 296.471871,120.097888 296.207379,120 C294.955738,122.043706 293.53687,123.99032 291.822796,125.737179 C287.26416,130.381676 281.3515,132.715066 274.580523,132.107048 C265.290906,131.273808 255.082395,127.311342 248.867702,120.46636 C248.579321,120.56186 248.288381,120.645423 248,120.74331 C254.354617,127.915381 264.941948,132.042585 274.580523,132.902883 C280.925754,133.469518 286.672041,131.545188 291.245181,127.429126 C293.575264,125.332099 295.419878,122.893658 297,120.296051" id="Fill-62" fill="#F5E4D5"></path>
                <path d="M384.012054,62.6058661 C384.33984,64.8500792 384.667626,67.0942923 384.995412,69.3375908 C385.165281,70.4990214 386.809333,70.0033557 386.642026,68.8519848 C386.313386,66.6077718 385.986453,64.3635587 385.658667,62.1193456 C385.487945,60.9579151 383.843893,61.4544952 384.012054,62.6058661 M394.397071,62.6058661 C394.72571,64.8500792 395.053496,67.0942923 395.381283,69.3375908 C395.551151,70.4990214 397.195203,70.0033557 397.027042,68.8519848 C396.699256,66.6077718 396.37147,64.3635587 396.043684,62.1193456 C395.873815,60.9579151 394.229763,61.4544952 394.397071,62.6058661 M406.205908,62.14861 C406.533694,64.3928231 406.861481,66.6370361 407.189267,68.8803347 C407.359135,70.0417653 409.003187,69.5460996 408.83588,68.3947287 C408.50724,66.1505156 408.179454,63.9063026 407.852522,61.6620895 C407.6818,60.5006589 406.037747,60.9972391 406.205908,62.14861 M416.590925,62.14861 C416.919565,64.3928231 417.247351,66.6370361 417.575137,68.8803347 C417.745005,70.0417653 419.389058,69.5460996 419.220897,68.3947287 C418.89311,66.1505156 418.565324,63.9063026 418.237538,61.6620895 C418.06767,60.5006589 416.423617,60.9972391 416.590925,62.14861 M427.972958,62.14861 C428.300744,64.3928231 428.62853,66.6370361 428.956316,68.8803347 C429.126184,70.0417653 430.770237,69.5460996 430.602929,68.3947287 C430.27429,66.1505156 429.947357,63.9063026 429.619571,61.6620895 C429.448849,60.5006589 427.804797,60.9972391 427.972958,62.14861 M438.357974,62.14861 C438.686614,64.3928231 439.0144,66.6370361 439.342186,68.8803347 C439.512055,70.0417653 441.156107,69.5460996 440.987946,68.3947287 C440.66016,66.1505156 440.332374,63.9063026 440.004587,61.6620895 C439.834719,60.5006589 438.190667,60.9972391 438.357974,62.14861" id="Fill-64" fill="#9E4D4D"></path>
                <path d="M415.132731,110.316359 C414.485363,112.680076 413.805406,115.033041 413.113119,117.383318 C412.084376,115.405788 411.000144,113.461411 409.829596,111.564523 C409.530133,111.077981 408.767384,111.52689 409.069489,112.017017 C410.426761,114.217657 411.688908,116.471163 412.856814,118.782015 C413.036491,119.137737 413.557028,119.02663 413.66184,118.675388 C414.464225,115.976557 415.237544,113.269661 415.981797,110.554702 C416.134171,109.998269 415.284224,109.760822 415.132731,110.316359" id="Fill-66" fill="#78ADD9"></path>
                <path d="M402.132731,110.316371 C401.485363,112.679283 400.805406,115.033235 400.113119,117.382707 C399.084376,115.4051 398.000144,113.461544 396.829596,111.564584 C396.530133,111.077127 395.767384,111.526949 396.069489,112.016198 C397.426761,114.21782 398.688908,116.471413 399.856814,118.782354 C400.036491,119.13809 400.557028,119.026082 400.66184,118.674826 C401.464225,115.976787 402.237544,113.269787 402.981797,110.554723 C403.134171,109.998269 402.284224,109.760813 402.132731,110.316371" id="Fill-68" fill="#78ADD9"></path>
                <path d="M427.132731,94.3163709 C426.485363,96.6792834 425.805406,99.0332352 425.113119,101.382707 C424.084376,99.4051005 423.000144,97.4615445 421.829596,95.5645837 C421.530133,95.0771266 420.767384,95.5269491 421.069489,96.0170944 C422.426761,98.2178198 423.688908,100.471413 424.856814,102.782354 C425.036491,103.13809 425.557028,103.026082 425.66184,102.674826 C426.464225,99.9767873 427.237544,97.2697875 427.981797,94.5547231 C428.134171,93.9982693 427.284224,93.7608132 427.132731,94.3163709" id="Fill-70" fill="#78ADD9"></path>
                <path d="M399.132731,80.3163709 C398.485363,82.6792834 397.805406,85.0332352 397.113119,87.3827067 C396.084376,85.4051005 395.000144,83.4615445 393.829596,81.5645837 C393.530133,81.0771266 392.767384,81.5269491 393.069489,82.0170944 C394.426761,84.2178198 395.688908,86.4714129 396.856814,88.7823538 C397.036491,89.1380899 397.557028,89.0260823 397.66184,88.6748265 C398.464225,85.9767873 399.237544,83.2697875 399.981797,80.5547231 C400.134171,79.9982693 399.284224,79.7608132 399.132731,80.3163709" id="Fill-72" fill="#78ADD9"></path>
                <path d="M417.132731,127.316359 C416.485363,129.680076 415.805406,132.033041 415.113119,134.383318 C414.084376,132.405788 413.000144,130.461411 411.829596,128.564523 C411.530133,128.077981 410.767384,128.52689 411.069489,129.017017 C412.426761,131.217657 413.688908,133.471163 414.856814,135.782015 C415.036491,136.137737 415.557028,136.02663 415.66184,135.675388 C416.464225,132.976557 417.237544,130.269661 417.981797,127.554702 C418.134171,126.998269 417.284224,126.760822 417.132731,127.316359" id="Fill-74" fill="#78ADD9"></path>
                <path d="M434.75226,125.041117 C434.645423,124.525164 433.93773,124.263437 433.495849,124.542668 C432.430891,125.216991 429.412086,124.670198 428.151402,124.625187 C426.130033,124.553504 424.112083,124.439311 422.093278,124.303446 C422.000116,124.297611 421.914646,124.307614 421.836013,124.328452 C421.834304,124.319283 421.832594,124.310948 421.830885,124.301779 C421.739432,123.773323 420.916355,123.997542 421.006953,124.522664 C421.494133,127.339149 422.012082,130.150633 422.529176,132.961284 C422.454817,133.077977 422.400971,133.20634 422.401826,133.353041 C422.412082,134.833384 422.569347,136.29789 422.858236,137.750726 C422.88986,137.907429 422.966783,138.019955 423.059946,138.11331 C423.159091,139.076866 423.330031,140.033754 423.59157,140.993143 C423.641997,141.177352 423.815502,141.289045 424.003536,141.299047 C426.824905,141.449916 429.636018,141.682469 432.442857,141.996709 C432.697558,142.025882 432.827473,141.856676 432.843712,141.664965 C433.943713,141.626623 435.042004,141.570777 436.142859,141.473254 C436.574484,141.435746 437.037732,141.121506 436.997561,140.639728 C436.565937,135.39268 435.819782,130.201478 434.75226,125.041117" id="Fill-76" fill="#78ADD9"></path>
                <path d="M416.928916,90.0686167 C416.519749,87.6552474 415.660671,85.2556492 415.240234,82.8663792 C414.798125,80.3557522 414.767785,77.8399611 414.564068,75.312981 C413.281086,74.7561159 410.417782,75.1072766 409.332448,75.1305152 C406.579238,75.1873206 403.841632,75.7063155 401.089289,75.5694661 C401.057214,75.5677447 401.030341,75.5608592 401,75.5582771 C401.369291,77.6979476 401.752452,79.835036 402.137346,81.9721243 C402.250908,82.1270482 402.336729,82.320703 402.379206,82.5591136 C402.745029,84.5980835 403.002492,86.6697596 403.415994,88.6966799 C403.526955,89.2423562 403.772282,89.8491412 403.937856,90.4585084 C405.769573,90.3371513 407.847483,90.9413543 409.619386,90.9869708 C411.158964,91.0274231 412.691608,90.969757 414.227718,90.8681959 C414.877011,90.8251615 416.080241,90.9138123 417,90.8191366 C416.976594,90.5695371 416.950588,90.3190769 416.928916,90.0686167" id="Fill-78" fill="#78ADD9"></path>
                <path d="M434.940067,124.119316 C438.526707,124.16751 442.177026,124.21054 445.993424,124.246685 C446.643115,129.912014 447.321204,135.548943 448.075018,141.111861 C448.055226,141.120467 448.042318,141.135097 448.025108,141.146285 C448.025108,141.144564 448.024247,141.142843 448.024247,141.141121 C444.288738,141.104976 440.610883,141.056783 436.952819,141.003425 C436.236868,135.378544 435.578572,129.744197 434.940067,124.119316 M423.075242,140.775366 C422.360151,135.15651 421.702715,129.527326 421.065071,123.906748 C425.418433,123.979899 429.674556,124.047026 434.008126,124.106407 C434.657817,129.778621 435.335906,135.421574 436.08972,140.990516 C431.731195,140.925111 427.404509,140.851099 423.075242,140.775366 M410.059042,140.55161 C409.343952,134.932754 408.685655,129.30357 408.048872,123.683852 C412.251643,123.756143 416.238424,123.825851 420.132269,123.891257 C420.7811,129.557447 421.459188,135.196097 422.212142,140.760736 C418.180614,140.689306 414.13962,140.617877 410.059042,140.55161 M396.939581,140.365721 C396.222769,134.735676 395.563612,129.095305 394.925108,123.4644 C399.244049,123.534108 403.269553,123.602096 407.11607,123.668362 C407.764901,129.334551 408.442989,134.973202 409.195943,140.537841 C405.163554,140.473296 401.089861,140.413914 396.939581,140.365721 M393.025084,106.662908 C393.062946,106.790277 393.162767,106.890106 393.348638,106.893549 C397.560875,106.960675 401.491723,107.026942 405.250466,107.091487 C405.841642,112.319631 406.419911,117.559824 407.01625,122.783665 C403.006235,122.719981 398.957496,122.660599 394.82959,122.613266 C394.226367,117.279268 393.63347,111.956458 393.025084,106.662908 M391.144851,91.1936248 C395.478421,91.2633334 399.520275,91.3313207 403.377979,91.3975869 C404.007878,96.2961215 404.587007,101.24371 405.148925,106.208511 C401.313595,106.147408 397.443845,106.091469 393.499229,106.046718 C393.195466,106.042415 393.018199,106.298874 393.008734,106.531236 C392.417558,101.384849 391.80745,96.2660005 391.144851,91.1936248 M388.93418,75.9205585 C393.273773,75.9902671 397.324233,76.0591151 401.18796,76.1253812 C401.951239,80.8492141 402.628467,85.6573857 403.259227,90.5128902 C399.235444,90.4483453 395.170356,90.3889639 391.028681,90.3416309 C390.388456,85.4869869 389.700041,80.6745123 388.93418,75.9205585 M414.205019,76.3491372 C414.968299,81.0721094 415.644666,85.880281 416.275426,90.734925 C412.252503,90.6643558 408.220115,90.592926 404.147282,90.5266598 C403.508777,85.6840643 402.822084,80.8827775 402.057944,76.1400114 C406.281367,76.2123018 410.288801,76.282871 414.205019,76.3491372 M428.080876,76.562566 C428.844156,81.2915624 429.522244,86.1057582 430.153865,90.9664264 C425.803945,90.9001602 421.485004,90.8261486 417.164342,90.7512764 C416.524977,85.9078202 415.838283,81.1065334 415.074143,76.3629068 C419.445576,76.4360578 423.721491,76.5031846 428.080876,76.562566 M440.069617,76.7019832 C440.832896,81.4352826 441.511845,86.2529208 442.141744,91.117892 C438.39763,91.0817468 434.707727,91.0326926 431.04192,90.9784748 C430.402554,86.129855 429.715,81.322544 428.95,76.5746144 C432.555571,76.622808 436.225681,76.665838 440.069617,76.7019832 M444.029722,106.816095 C440.300235,106.778228 436.619799,106.730035 432.964317,106.674956 C432.391212,101.701549 431.800897,96.7522395 431.159811,91.8476807 C434.760219,91.8967349 438.424306,91.9389043 442.257914,91.9750495 C442.886953,96.8839112 443.466082,101.841827 444.029722,106.816095 M419.190862,107.330733 C423.555411,107.403884 427.814976,107.471872 432.143383,107.532114 C432.734559,112.764561 433.312827,118.009057 433.910027,123.237201 C429.575596,123.170935 425.273005,123.097784 420.965251,123.022051 C420.371493,117.774974 419.789783,112.539084 419.190862,107.330733 M418.266666,107.315243 C418.857842,112.542526 419.43611,117.782719 420.032449,123.0057 C416.024155,122.935131 412.007256,122.864561 407.949052,122.798295 C407.355294,117.551218 406.772723,112.315328 406.174663,107.106977 C410.383458,107.180128 414.377123,107.249837 418.266666,107.315243 M417.284814,91.6359731 C421.651084,91.7091241 425.920975,91.7762509 430.270035,91.8364929 C430.900795,96.7393305 431.479923,101.692943 432.043563,106.662047 C427.706551,106.595781 423.400517,106.520909 419.086739,106.445176 C418.514495,101.477793 417.92504,96.5345077 417.284814,91.6359731 M418.165124,106.428825 C414.155109,106.358255 410.134768,106.287686 406.07054,106.223141 C405.497435,101.254898 404.908841,96.3107517 404.268615,91.4130777 C408.486015,91.4862287 412.486564,91.5559373 416.395038,91.6213429 C417.024077,96.5190169 417.602345,101.465745 418.165124,106.428825 M445.896186,123.388667 C442.16756,123.352522 438.494008,123.304328 434.842829,123.25011 C434.248211,117.99873 433.66564,112.757676 433.066719,107.545023 C436.658522,107.594077 440.315725,107.637107 444.128681,107.674113 C444.719857,112.910002 445.299846,118.157941 445.896186,123.388667 M445.052017,107.683579 L445.067507,107.683579 C445.061483,107.662064 445.05632,107.636246 445.043412,107.613871 C443.814592,96.9088686 442.507465,86.3209082 440.831175,76.0126427 C440.742542,75.4670223 439.907839,75.6787299 439.996472,76.2234896 C440.011962,76.3164344 440.024009,76.411961 440.039498,76.5049058 C439.945702,76.2975012 439.883745,76.0746059 439.885466,75.8431045 C436.109512,75.8069593 432.392073,75.7579051 428.695286,75.7036873 C428.574814,75.6245121 428.413036,75.6296757 428.275353,75.6968025 C423.763656,75.6296757 419.285519,75.5539429 414.805661,75.4756283 C414.695515,75.4119439 414.556111,75.4179681 414.429615,75.4687435 C410.231146,75.3947319 406.023212,75.3198597 401.772252,75.2510118 C401.67071,75.201097 401.546796,75.2045394 401.433207,75.2458482 C397.242484,75.1778608 393.007873,75.1158976 388.690653,75.0659828 C388.429056,74.8818144 387.9377,75.0986856 388.006541,75.5238219 C391.433985,96.5981921 393.205792,119.318029 396.146183,140.886384 C396.200396,141.290005 396.684868,141.406186 396.903439,141.215993 C401.361784,141.287423 405.512064,141.357132 409.470448,141.425119 C409.643412,141.544743 418.480074,141.581748 422.502136,141.649736 C422.667356,141.75559 431.898135,141.802062 436.374551,141.863165 C436.543213,141.9716 444.335206,141.963855 448.266053,142 C448.26089,141.992255 448.258308,141.982788 448.254866,141.974182 C448.281542,141.978485 448.302195,141.989673 448.332313,141.989673 C448.385665,141.989673 448.430412,141.975903 448.473438,141.961273 C448.733314,142.048194 449.039659,141.944061 448.995772,141.604124 C447.54666,130.286375 446.341934,118.920432 445.052017,107.683579" id="Fill-80" fill="#9E4D4D"></path>
                <path d="M496.930548,335.840331 C496.887666,335.412412 496.596927,335.059358 496.133802,335.055955 C480.844696,334.932598 464.458671,335.016821 449.170423,335.272892 C448.336799,335.287354 448.448292,335.999419 448.425993,336.126178 C447.669557,340.537233 448.123247,347.805053 448.259612,348.671951 C451.154139,367.069073 453.910586,381.484759 456.193618,397.151024 C456.509228,399.322097 456.654169,398.866104 457.110432,398.879716 C473.614811,399.362933 489.01884,398.201681 505.524077,398.685748 C505.985486,398.69936 506.346551,398.308873 506.313961,397.895417 C506.16902,395.999131 507.340553,390.611433 506.900585,387.167662 C504.878276,371.340608 497.867946,345.258807 496.930548,335.840331" id="Fill-82" fill="#FFFFFF"></path>
                <path d="M459.035542,387.738644 L507,388 C506.988256,387.552943 506.961412,387.122221 506.911079,386.71901 C504.933846,370.724683 498.076029,344.36723 497.159136,334.849213 C497.117193,334.416771 496.833652,334.059985 496.380659,334.056546 C481.425163,333.931886 465.397583,334.016999 450.444605,334.275776 C450.245791,334.279215 450.10486,334.32564 450,334.393558 L459.035542,387.738644 Z" id="Fill-84" fill="#78ADD9"></path>
                <path d="M505.993133,395 C490.136764,395.327838 474.274387,395.409115 458.414585,395.207631 C457.861805,395.200801 457.861805,395.883797 458.414585,395.890627 C474.276962,396.092111 490.141914,396.010834 506,395.682996 C505.992275,395.456242 505.990558,395.228804 505.993133,395" id="Fill-86" fill="#F5E4D5"></path>
                <path d="M460.4103,391.891867 C476.179241,392.091488 491.95073,392.010963 507.716273,391.681419 C507.794425,391.449994 507.888718,391.221952 508,391 C492.141014,391.333604 476.274383,391.41616 460.4103,391.215185 C459.863233,391.208418 459.863233,391.8851 460.4103,391.891867" id="Fill-88" fill="#F5E4D5"></path>
                <path d="M507.101387,397.999665 C507.376606,398.013038 507.527516,397.623545 507.573045,397.223186 C507.710654,396.00372 508.184869,390.067704 507.921928,386.683457 C507.912208,386.555576 507.900442,386.421844 507.890211,386.292291 C507.734186,386.16859 507.562813,386.064947 507.357678,386.005604 C507.071205,385.922858 506.211786,386.782919 506.211786,386.840591 C506.21332,390.535765 506.067526,394.270223 506,397.967068 C506.367811,397.980441 506.731018,397.982113 507.101387,397.999665" id="Fill-90" fill="#78ADD9"></path>
                <polygon id="Fill-92" fill="#FFFFFF" points="118.733445 347.34066 160 348 152.268231 292.65934 111 292"></polygon>
                <polygon id="Fill-94" fill="#FFFFFF" points="420.733445 213.34066 462 214 454.268231 158.65934 413 158"></polygon>
                <path d="M152.118644,324.000657 C141.208313,323.941087 130.303986,323.607818 119.413385,323.000849 C118.860062,322.970259 118.864352,323.776062 119.413385,323.805847 C130.303986,324.412815 141.208313,324.746085 152.118644,324.80566 C152.672825,324.808069 152.67111,324.003072 152.118644,324.000657 M152.65481,328.830644 C141.744479,328.771074 130.840152,328.437805 119.949551,327.830836 C119.396228,327.800247 119.400517,328.606049 119.949551,328.635834 C130.840152,329.242803 141.744479,329.576072 152.65481,329.635647 C153.208991,329.638057 153.207276,328.833059 152.65481,328.830644 M153.727142,334.06313 C142.81681,334.00356 131.912484,333.670291 121.021883,333.063323 C120.46856,333.032733 120.472849,333.838536 121.021883,333.86832 C131.912484,334.475289 142.81681,334.808558 153.727142,334.868133 C154.281323,334.870543 154.279607,334.065545 153.727142,334.06313 M154.585007,339.194991 C143.674676,339.135421 132.770349,338.802152 121.879748,338.195184 C121.326425,338.164594 121.330715,338.970397 121.879748,339.000182 C132.770349,339.60715 143.674676,339.940419 154.585007,339.999995 C155.139188,340.002404 155.137473,339.197406 154.585007,339.194991" id="Fill-96" fill="#1F2144"></path>
            </g>
        </g>
    </g>
</svg>